<svg width="28" height="28" viewBox="0 0 28 28" fill="none" xmlns="http://www.w3.org/2000/svg">
<g clip-path="url(#clip0_1371_22636)">
<path d="M3.35162 6.24609C2.87115 6.70312 2.89459 7.38281 3.35162 7.81641L9.38677 13.7227C9.59771 13.9336 9.9024 14.0625 10.1602 14.0625C10.7813 14.0625 11.2032 13.6289 11.2032 13.0195C11.2032 12.7266 11.0977 12.4922 10.8985 12.293L8.37896 9.85547L6.19927 7.96875L8.9063 8.08594H24.5626C25.1719 8.08594 25.6055 7.65234 25.6055 7.03125C25.6055 6.42188 25.1719 5.98828 24.5626 5.98828H8.9063L6.19927 6.09375L8.37896 4.21875L10.8985 1.76953C11.0977 1.57031 11.2032 1.34766 11.2032 1.04297C11.2032 0.433594 10.7813 0.0117188 10.1602 0.0117188C9.9024 0.0117188 9.59771 0.128906 9.38677 0.339844L3.35162 6.24609Z" fill="#37CAEC"/>
<path d="M25.2656 21.457C25.7343 21 25.7226 20.3203 25.2656 19.875L19.2304 13.9688C19.0195 13.7695 18.7148 13.6406 18.4453 13.6406C17.8242 13.6406 17.414 14.0625 17.414 14.6719C17.414 14.9766 17.5078 15.2109 17.707 15.3984L20.2382 17.8477L22.4179 19.7344L19.7109 19.6172H4.05468C3.44531 19.6172 3 20.0508 3 20.6602C3 21.2812 3.44531 21.7148 4.05468 21.7148H19.7109L22.4179 21.5977L20.2382 23.4844L17.707 25.9219C17.5078 26.1211 17.414 26.3555 17.414 26.6602C17.414 27.2695 17.8242 27.6914 18.4453 27.6914C18.7148 27.6914 19.0195 27.5625 19.2304 27.3633L25.2656 21.457Z" fill="black"/>
</g>
<defs>
<clipPath id="clip0_1371_22636">
<rect width="22.6129" height="27.6914" fill="white" transform="translate(3)"/>
</clipPath>
</defs>
</svg>
