<svg width="28" height="28" viewBox="0 0 28 28" fill="none" xmlns="http://www.w3.org/2000/svg">
<g clip-path="url(#clip0_1371_22625)">
<path d="M5.26172 19.9258H8.13281C8.82422 19.9258 9.28125 19.457 9.28125 18.8008V16.6328C9.28125 15.9648 8.82422 15.5078 8.13281 15.5078H5.26172C4.57031 15.5078 4.11328 15.9648 4.11328 16.6328V18.8008C4.11328 19.457 4.57031 19.9258 5.26172 19.9258Z" fill="black"/>
<path d="M0.949219 11.3359H26.6016V8.67578H0.949219V11.3359Z" fill="#37CAEC"/>
<path d="M3.67969 24.0273H23.8594C26.3203 24.0273 27.5391 22.8203 27.5391 20.4062V7.64453C27.5391 5.23047 26.3203 4.01172 23.8594 4.01172H3.67969C1.23047 4.01172 0 5.23047 0 7.64453V20.4062C0 22.8203 1.23047 24.0273 3.67969 24.0273ZM3.70312 22.1406C2.53125 22.1406 1.88672 21.5195 1.88672 20.3008V7.75C1.88672 6.53125 2.53125 5.89844 3.70312 5.89844H23.8359C24.9844 5.89844 25.6523 6.53125 25.6523 7.75V20.3008C25.6523 21.5195 24.9844 22.1406 23.8359 22.1406H3.70312Z" fill="#37CAEC"/>
</g>
<defs>
<clipPath id="clip0_1371_22625">
<rect width="27.5391" height="20.0273" fill="white" transform="translate(0 4)"/>
</clipPath>
</defs>
</svg>
