<svg width="28" height="28" viewBox="0 0 28 28" fill="none" xmlns="http://www.w3.org/2000/svg">
<g clip-path="url(#clip0_1376_22641)">
<g clip-path="url(#clip1_1376_22641)">
<path d="M17.582 14.0977C17.582 13.5938 17.1602 13.1602 16.668 13.1602H4.63281L2.875 13.2305L3.70703 12.4453L5.60547 10.6641C5.79297 10.5 5.88671 10.2656 5.88671 10.0313C5.88671 9.5508 5.53515 9.1758 5.05468 9.1758C4.80859 9.1758 4.62109 9.2813 4.44531 9.457L0.625 13.418C0.390625 13.6524 0.308594 13.8516 0.308594 14.0977C0.308594 14.332 0.390625 14.5313 0.625 14.7774L4.44531 18.7383C4.62109 18.9141 4.80859 19.0078 5.05468 19.0078C5.53515 19.0078 5.88671 18.6563 5.88671 18.1641C5.88671 17.9414 5.79297 17.6836 5.60547 17.5195L3.70703 15.75L2.875 14.9531L4.63281 15.0234H16.668C17.1602 15.0234 17.582 14.6016 17.582 14.0977Z" fill="#37CAEC"/>
<path d="M26.7578 20.8125V7.3711C26.7578 4.9219 25.5391 3.6914 23.125 3.6914H11.4297C9.01563 3.6914 7.79688 4.9219 7.79688 7.3711V10.6406H9.6836L9.6836 7.4063C9.6836 6.2461 10.3164 5.5781 11.5352 5.5781H23.0195C24.2383 5.5781 24.8711 6.2461 24.8711 7.4063V20.7891C24.8711 21.961 24.2383 22.6055 23.0195 22.6055H11.5352C10.3164 22.6055 9.6836 21.961 9.6836 20.7891V17.543H7.79688V20.8125C7.79688 23.2617 9.01563 24.4922 11.4297 24.4922H23.125C25.5391 24.4922 26.7578 23.2617 26.7578 20.8125Z" fill="black"/>
</g>
</g>
<defs>
<clipPath id="clip0_1376_22641">
<rect width="28" height="28" fill="white"/>
</clipPath>
<clipPath id="clip1_1376_22641">
<rect width="20.8008" height="28.1836" fill="white" transform="matrix(0 -1 1 0 0.308594 24.4922)"/>
</clipPath>
</defs>
</svg>
