<svg width="28" height="28" viewBox="0 0 28 28" fill="none" xmlns="http://www.w3.org/2000/svg">
<g clip-path="url(#clip0_1374_22609)">
<path d="M13.9531 25.9062C20.4922 25.9062 25.9062 20.4805 25.9062 13.9531C25.9062 7.41406 20.4805 2 13.9414 2C7.41406 2 2 7.41406 2 13.9531C2 20.4805 7.42578 25.9062 13.9531 25.9062ZM13.9531 23.9141C8.42188 23.9141 4.00391 19.4844 4.00391 13.9531C4.00391 8.42188 8.41016 3.99219 13.9414 3.99219C19.4727 3.99219 23.9141 8.42188 23.9141 13.9531C23.9141 19.4844 19.4844 23.9141 13.9531 23.9141Z" fill="#37CAEC"/>
<path d="M13.707 16.3789C14.293 16.3789 14.6562 16.0039 14.6562 15.5469C14.6562 15.5 14.6562 15.4414 14.6562 15.4062C14.6562 14.75 15.0312 14.3281 15.8516 13.7891C16.9883 13.0391 17.7969 12.3594 17.7969 10.9531C17.7969 9.00782 16.0625 7.95312 14.0703 7.95312C12.0547 7.95312 10.7305 8.91406 10.4141 9.99219C10.3555 10.1797 10.3203 10.3672 10.3203 10.5664C10.3203 11.0938 10.7305 11.375 11.1172 11.375C11.5156 11.375 11.7734 11.1875 11.9844 10.9063L12.1953 10.625C12.6055 9.94531 13.2148 9.54688 14 9.54688C15.0664 9.54688 15.7578 10.1563 15.7578 11.0469C15.7578 11.8438 15.2656 12.2305 14.2461 12.9453C13.4023 13.5312 12.7695 14.1523 12.7695 15.3008C12.7695 15.3477 12.7695 15.4062 12.7695 15.4531C12.7695 16.0625 13.1094 16.3789 13.707 16.3789ZM13.6836 19.8711C14.3633 19.8711 14.9492 19.332 14.9492 18.6523C14.9492 17.9727 14.375 17.4336 13.6836 17.4336C12.9922 17.4336 12.418 17.9844 12.418 18.6523C12.418 19.3203 13.0039 19.8711 13.6836 19.8711Z" fill="black"/>
</g>
<defs>
<clipPath id="clip0_1374_22609">
<rect width="23.9062" height="23.918" fill="white" transform="translate(2 2)"/>
</clipPath>
</defs>
</svg>
