<svg width="28" height="28" viewBox="0 0 28 28" fill="none" xmlns="http://www.w3.org/2000/svg">
<g clip-path="url(#clip0_1376_22631)">
<path d="M8.10938 25.5625H20.4258C22.6289 25.5625 23.8477 24.4023 23.8477 22.1875V14.9922H23.9297C24.9609 14.7695 25.5352 13.9375 25.5352 12.7422V9.66016C25.5352 8.23047 24.7383 7.32812 23.3086 7.32812H20.9414H7.59375H5.22656C3.85547 7.32812 3 8.23047 3 9.66016V12.7422C3 13.9375 3.5625 14.7695 4.59375 14.9922H4.67578V22.1875C4.67578 24.4023 5.89453 25.5625 8.10938 25.5625ZM13.2188 23.8047H8.08594C7.11328 23.8047 6.5625 23.2539 6.5625 22.2812V15.0742H13.2188V23.8047ZM15.3047 23.8047V15.0742H21.9609V22.2812C21.9609 23.2539 21.4102 23.8047 20.4375 23.8047H15.3047ZM13.2188 13.3047H5.70703C5.12109 13.3047 4.88672 13.0586 4.88672 12.4727V9.91797C4.88672 9.33203 5.12109 9.09766 5.70703 9.09766H13.2188V13.3047ZM15.3047 13.3047V9.09766H22.8398C23.4258 9.09766 23.6484 9.33203 23.6484 9.91797V12.4727C23.6484 13.0586 23.4258 13.3047 22.8398 13.3047H15.3047Z" fill="black"/>
<path d="M21.9258 4.89062C21.9258 5.86328 21.5625 6.70703 20.9414 7.32812H17.0508C18.9023 7.32812 19.9688 6.28516 19.9688 4.99609C19.9688 3.70703 19.0312 2.95703 17.7422 2.95703C16.3477 2.95703 15.2227 4.01172 15.2227 5.74609V7.32812H13.3008V5.74609C13.3008 4.01172 12.1758 2.95703 10.7812 2.95703C9.49219 2.95703 8.55469 3.70703 8.55469 4.99609C8.55469 6.28516 9.63281 7.32812 11.4727 7.32812H7.59375C6.96094 6.70703 6.59766 5.86328 6.59766 4.89062C6.59766 2.61719 8.40234 1 10.6641 1C12.3164 1 13.6641 1.90234 14.2617 3.47266C14.8594 1.90234 16.2188 1 17.8594 1C20.1328 1 21.9258 2.61719 21.9258 4.89062Z" fill="#37CAEC"/>
</g>
<defs>
<clipPath id="clip0_1376_22631">
<rect width="22.5352" height="25.8867" fill="white" transform="translate(3 1)"/>
</clipPath>
</defs>
</svg>
