<svg width="28" height="28" viewBox="0 0 28 28" fill="none" xmlns="http://www.w3.org/2000/svg">
<g clip-path="url(#clip0_1376_22636)">
<path d="M13.9531 25.9062C20.4922 25.9062 25.9062 20.4805 25.9062 13.9531C25.9062 7.41406 20.4805 2 13.9414 2C7.41406 2 2 7.41406 2 13.9531C2 20.4805 7.42578 25.9062 13.9531 25.9062ZM13.9531 23.9141C8.42188 23.9141 4.00391 19.4844 4.00391 13.9531C4.00391 8.42188 8.41016 3.99219 13.9414 3.99219C19.4727 3.99219 23.9141 8.42188 23.9141 13.9531C23.9141 19.4844 19.4844 23.9141 13.9531 23.9141Z" fill="black"/>
<path d="M11.9023 20.5156H16.6719C17.1523 20.5156 17.5273 20.1641 17.5273 19.6836C17.5273 19.2266 17.1523 18.8633 16.6719 18.8633H15.2188V12.8984C15.2188 12.2656 14.9023 11.8438 14.3047 11.8438H12.1016C11.6211 11.8438 11.2461 12.207 11.2461 12.6641C11.2461 13.1445 11.6211 13.4961 12.1016 13.4961H13.3555V18.8633H11.9023C11.4219 18.8633 11.0469 19.2266 11.0469 19.6836C11.0469 20.1641 11.4219 20.5156 11.9023 20.5156ZM13.8477 9.89844C14.7031 9.89844 15.3711 9.21875 15.3711 8.36328C15.3711 7.50781 14.7031 6.82812 13.8477 6.82812C13.0039 6.82812 12.3242 7.50781 12.3242 8.36328C12.3242 9.21875 13.0039 9.89844 13.8477 9.89844Z" fill="#37CAEC"/>
</g>
<defs>
<clipPath id="clip0_1376_22636">
<rect width="23.9062" height="23.918" fill="white" transform="translate(2 2)"/>
</clipPath>
</defs>
</svg>
