<svg width="28" height="28" viewBox="0 0 28 28" fill="none" xmlns="http://www.w3.org/2000/svg">
<g clip-path="url(#clip0_1371_22610)">
<path d="M6.87109 25.0898H21.6016C23.5469 25.0898 24.4727 24.5039 24.4727 23.2148C24.4727 20.1445 20.5938 15.7031 14.2422 15.7031C7.87891 15.7031 4 20.1445 4 23.2148C4 24.5039 4.92578 25.0898 6.87109 25.0898ZM6.32031 23.3203C6.01562 23.3203 5.88672 23.2383 5.88672 22.9922C5.88672 21.0703 8.86328 17.4727 14.2422 17.4727C19.6094 17.4727 22.5859 21.0703 22.5859 22.9922C22.5859 23.2383 22.4688 23.3203 22.1641 23.3203H6.32031Z" fill="#37CAEC"/>
<path d="M14.2422 14.25C17.0312 14.25 19.3047 11.7656 19.3047 8.74219C19.3047 5.74219 17.043 3.38672 14.2422 3.38672C11.4648 3.38672 9.17969 5.78906 9.17969 8.76562C9.19141 11.7773 11.4531 14.25 14.2422 14.25ZM14.2422 12.4805C12.5312 12.4805 11.0664 10.8398 11.0664 8.76562C11.0664 6.72656 12.5078 5.15625 14.2422 5.15625C15.9883 5.15625 17.418 6.70312 17.418 8.74219C17.418 10.8164 15.9648 12.4805 14.2422 12.4805Z" fill="black"/>
</g>
<defs>
<clipPath id="clip0_1371_22610">
<rect width="20.4727" height="22.0898" fill="white" transform="translate(4 3)"/>
</clipPath>
</defs>
</svg>
