<svg xmlns="http://www.w3.org/2000/svg" fill="none" viewBox="0 0 85 38"><g clip-path="url(#a)"><path fill="#37CAEC" d="M12.937 26.78c.474 0 .875.17 1.202.51.335.34.502.749.502 1.229 0 .48-.167.89-.502 1.23a1.624 1.624 0 01-1.202.496l-10.215-.013c-.376 0-.703-.1-.98-.298a1.669 1.669 0 01-.712-1.105 1.71 1.71 0 01.27-1.29l8.412-12.416H2.796c-.474 0-.879-.166-1.214-.497a1.707 1.707 0 01-.49-1.229c0-.48.163-.886.49-1.216.335-.34.74-.51 1.214-.51h10.141c.335-.024.662.075.98.298.385.265.618.638.7 1.118.09.472.004.902-.258 1.291l-8.4 12.403h6.978z"/><path fill="#fff" d="M26.054 17.345c1.153 0 2.216.29 3.189.87a6.313 6.313 0 012.33 2.346c.572.985.858 2.06.858 3.228v4.73c0 .48-.168.89-.503 1.23a1.624 1.624 0 01-1.202.496c-.302 0-.588-.079-.858-.236a1.653 1.653 0 01-.625-.633 6.16 6.16 0 01-3.189.869c-1.152 0-2.22-.29-3.2-.87a6.469 6.469 0 01-2.318-2.346 6.45 6.45 0 01-.846-3.24c0-1.772.621-3.286 1.864-4.544 1.25-1.267 2.751-1.9 4.5-1.9zm2.085 8.567c.58-.588.87-1.296.87-2.123a2.87 2.87 0 00-.87-2.11 2.801 2.801 0 00-2.085-.882 2.84 2.84 0 00-2.096.881c-.573.58-.859 1.283-.859 2.11 0 .828.286 1.536.859 2.124.58.58 1.279.869 2.096.869a2.82 2.82 0 002.085-.87zm15.668-8.567c.858 0 1.68.17 2.465.51.793.339 1.471.798 2.035 1.377a6.304 6.304 0 011.362 2.061c.335.795.502 1.627.502 2.496a6.38 6.38 0 01-.858 3.24 6.344 6.344 0 01-2.318 2.347 6.118 6.118 0 01-3.188.869 6.194 6.194 0 01-2.955-.745v4.693c0 .48-.168.885-.503 1.216-.327.34-.728.51-1.202.51s-.878-.17-1.214-.51a1.644 1.644 0 01-.502-1.216V23.789c0-1.167.286-2.243.858-3.228a6.344 6.344 0 012.317-2.347 6.182 6.182 0 013.201-.869zm2.085 8.567c.58-.588.87-1.296.87-2.123a2.87 2.87 0 00-.87-2.11 2.801 2.801 0 00-2.085-.882c-.817 0-1.516.294-2.097.881-.572.58-.858 1.283-.858 2.11 0 .828.286 1.536.858 2.124.58.58 1.28.869 2.097.869a2.82 2.82 0 002.085-.87zm15.386-8.567c.858 0 1.68.17 2.465.51.792.339 1.471.798 2.035 1.377a6.303 6.303 0 011.361 2.061c.335.795.503 1.627.503 2.496a6.379 6.379 0 01-.858 3.24 6.345 6.345 0 01-2.318 2.347 6.118 6.118 0 01-3.188.869 6.194 6.194 0 01-2.956-.745v4.693c0 .48-.167.885-.502 1.216-.327.34-.728.51-1.202.51s-.879-.17-1.214-.51a1.644 1.644 0 01-.503-1.216V23.789c0-1.167.286-2.243.859-3.228a6.342 6.342 0 012.317-2.347 6.182 6.182 0 013.2-.869zm2.084 8.567c.58-.588.871-1.296.871-2.123a2.87 2.87 0 00-.87-2.11 2.801 2.801 0 00-2.085-.882c-.818 0-1.517.294-2.097.881-.572.58-.858 1.283-.858 2.11 0 .828.286 1.536.858 2.124.58.58 1.28.869 2.097.869a2.82 2.82 0 002.084-.87zm21.199-3.998c.163.538.077 1.043-.258 1.515-.351.472-.813.707-1.385.707h-7.382c.13.737.474 1.362 1.03 1.875.556.513 1.181.77 1.876.77.695 0 1.32-.228 1.876-.683a1.582 1.582 0 011.055-.372c.36 0 .686.103.98.31.295.207.503.484.626.832a1.67 1.67 0 01-.49 1.862c-1.186 1.01-2.535 1.515-4.047 1.515-.85 0-1.668-.178-2.453-.534a6.527 6.527 0 01-2.035-1.428 7.178 7.178 0 01-1.361-2.123 6.555 6.555 0 01-.515-2.558v-.347h.036c.14-1.606.801-2.98 1.987-4.122 1.193-1.15 2.587-1.746 4.181-1.788 1.431-.041 2.73.364 3.9 1.217a6.295 6.295 0 012.379 3.352zm-7.407-.72l2.735-.025a2.8 2.8 0 00-1.423-.36c-.261 0-.478.02-.65.062-.196.042-.416.15-.662.323z"/><path stroke="#37CAEC" stroke-width="2" d="M68.304 20.048c-2.277-5.03-9.108-5.938-12.971-1.677L57.21 4.096a1.391 1.391 0 00-1.368-1.581h-3.546"/><path fill="#fff" stroke="#37CAEC" stroke-width="2" d="M63.816 3.853c0 .151 0 .293.002.426.002.329.003.61-.008.875-.017.369-.058.595-.114.739-.043.111-.088.157-.161.197-.103.055-.325.127-.777.127-1.699 0-2.94-1.261-2.94-2.655 0-1.393 1.241-2.654 2.94-2.654.4 0 .586.088.673.152.084.063.172.171.244.402.076.244.118.57.134.995.012.309.01.627.009.974l-.002.422z"/><path stroke="#37CAEC" stroke-width="2" d="M56.85 4.75h2.898M61.818 15.927L59.748 4.75"/><path fill="#37CAEC" stroke="#37CAEC" stroke-width="2" d="M37.27 23.345c-.43.002-.813.005-1.133.008.42-4.367 3.693-7.636 7.502-7.636 3.818 0 7.098 3.286 7.505 7.67-.428-.005-.984-.012-1.64-.018a615.551 615.551 0 00-6.094-.032h-.002c-2.33 0-4.571 0-6.137.008z"/><path fill="#fff" stroke="#37CAEC" stroke-width="2" d="M35.265 20.71c-.071.21-.13.42-.183.605l-.049.17a2.68 2.68 0 01-.188.515c-.059.108-.101.13-.124.138-.032.01-.127.028-.346-.049a17.06 17.06 0 00-.379-.126l-.01-.003c-.112-.036-.21-.068-.297-.099-.19-.066-.285-.115-.336-.156-.029-.024-.035-.035-.04-.072-.006-.065.006-.196.09-.442a5.156 5.156 0 01.929-1.61c.446-.506.822-.652 1.086-.56.215.075.277.148.295.177.015.025.035.076.014.208-.022.139-.08.31-.17.541l-.068.17c-.072.18-.153.384-.224.593z"/><path stroke="#37CAEC" stroke-width="2" d="M38.698 17.882v-5.007c.11-.52.592-1.559 1.645-1.559H52.29M50.272 11.316c-.572.821-1.411 4.744-.88 7.195"/><path stroke="#fff" d="M34.773 6.293h9.52M37.82 4.47h5.637m-7.465 3.492h4.8M66.105 3.632h2.07M65.83 1.418l1.943-.72M65.82 5.614l1.944.72"/></g><defs><clipPath id="a"><path fill="#fff" d="M0 0h85v38H0z"/></clipPath></defs></svg>